<svg width="10" height="15" viewBox="0 0 10 15" fill="none" xmlns="http://www.w3.org/2000/svg">
<path d="M1.88574 7.26562C1.88574 3.77051 4.71875 0.9375 8.21387 0.9375H8.91699C9.43555 0.9375 9.85449 1.35732 9.85449 1.875C9.85449 2.39268 9.43555 2.8125 8.91699 2.8125H8.21387C5.75586 2.8125 3.76074 4.80762 3.76074 7.26562V7.73438C3.76074 10.1924 5.75586 12.1875 8.21387 12.1875H8.91699C9.43555 12.1875 9.85449 12.6064 9.85449 13.125C9.85449 13.6436 9.43555 14.0625 8.91699 14.0625H8.21387C4.71875 14.0625 1.88574 11.2295 1.88574 7.73438V7.26562Z" fill="#119DA4"/>
<path opacity="0.4" d="M2.2458 9.84375H1.41699C0.899316 9.84375 0.479492 9.4248 0.479492 8.90625C0.479492 8.3877 0.899316 7.96875 1.41699 7.96875H1.89014C1.91387 8.625 2.0375 9.25488 2.2458 9.84375ZM3.7666 7.96875H7.97949C8.49805 7.96875 8.91699 8.3877 8.91699 8.90625C8.91699 9.4248 8.49805 9.84375 7.97949 9.84375H4.29102C3.98633 9.28125 3.80176 8.64551 3.7666 7.96875ZM4.29102 5.15625H7.97949C8.49805 5.15625 8.91699 5.5752 8.91699 6.09375C8.91699 6.6123 8.49805 7.03125 7.97949 7.03125H3.7666C3.80176 6.35449 3.98633 5.71875 4.29102 5.15625ZM1.89014 7.03125H1.41699C0.899316 7.03125 0.479492 6.6123 0.479492 6.09375C0.479492 5.5752 0.899316 5.15625 1.41699 5.15625H2.2458C2.0375 5.74512 1.91387 6.375 1.89014 7.03125Z" fill="#119DA4"/>
</svg>
