<svg width="12" height="15" viewBox="0 0 12 15" fill="none" xmlns="http://www.w3.org/2000/svg">
<path d="M5.96997 2.8125C5.35767 2.8125 4.76001 3.02051 4.27954 3.4043L4.08032 3.51855C3.70239 3.86719 3.11206 3.80273 2.78862 3.37207C2.46519 2.99414 2.53081 2.40381 2.93511 2.08037L3.10884 1.9415C3.92212 1.29141 4.92993 0.9375 5.96997 0.9375H7.24146C9.06958 0.9375 10.552 2.41963 10.552 4.22168C10.552 5.43457 9.91626 6.50684 8.88501 7.12207L4.71313 9.50684C4.26489 9.76172 3.9895 10.2363 3.9895 10.752C3.9895 11.5459 4.6311 12.1875 5.39868 12.1875H6.69653C7.30884 12.1875 7.90649 11.9795 8.38696 11.5957L8.55981 11.4551C8.96411 11.1064 9.55298 11.1973 9.85181 11.6016C10.2004 12.0059 10.136 12.5947 9.70532 12.8936L9.55884 13.0576C8.74438 13.708 7.73657 14.0625 6.69653 14.0625H5.39868C3.59663 14.0625 2.1145 12.5801 2.1145 10.752C2.1145 9.56543 2.75112 8.4668 3.78149 7.87793L7.95337 5.49316C8.40161 5.23828 8.677 4.76367 8.677 4.22168C8.677 3.4541 8.0354 2.8125 7.24146 2.8125H5.96997Z" fill="white"/>
<path opacity="0.4" d="M7.95337 5.49316L5.26392 7.03125H1.64575C1.12808 7.03125 0.708252 6.6123 0.708252 6.09375C0.708252 5.5752 1.12808 5.15625 1.64575 5.15625H8.35181C8.24341 5.29102 8.10864 5.40527 7.95337 5.49316ZM2.24136 9.84375H1.64575C1.12808 9.84375 0.708261 9.4248 0.708261 8.90625C0.708261 8.3877 1.12808 7.96875 1.64575 7.96875H3.63267C2.94976 8.4082 2.45991 9.0791 2.24136 9.84375ZM4.3147 9.84375C4.4231 9.70898 4.55786 9.59473 4.71313 9.50684L7.40259 7.96875H11.0208C11.5393 7.96875 11.9583 8.3877 11.9583 8.90625C11.9583 9.4248 11.5393 9.84375 11.0208 9.84375H4.3147ZM9.03442 7.03125C9.71704 6.56543 10.2063 5.9209 10.426 5.15625H11.0208C11.5393 5.15625 11.9583 5.5752 11.9583 6.09375C11.9583 6.6123 11.5393 7.03125 11.0208 7.03125H9.03442Z" fill="white"/>
</svg>
