<svg width="26" height="34" viewBox="0 0 26 34" fill="none" xmlns="http://www.w3.org/2000/svg">
<g clip-path="url(#clip0_59_1911)">
<path d="M12.526 6.24992C11.1653 6.24992 9.83716 6.71216 8.76945 7.56502L8.32674 7.81893C7.4869 8.59367 6.17505 8.45044 5.4563 7.49341C4.73755 6.65356 4.88338 5.34172 5.78182 4.62297L6.16789 4.31437C7.97518 2.86971 10.2148 2.08325 12.526 2.08325H15.3515C19.414 2.08325 22.7083 5.37687 22.7083 9.38143C22.7083 12.0767 21.2955 14.4596 19.0038 15.8267L9.73299 21.1262C8.7369 21.6926 8.12492 22.7473 8.12492 23.8931C8.12492 25.6575 9.5507 27.0833 11.2564 27.0833H14.1405C15.5012 27.0833 16.8293 26.621 17.8971 25.7681L18.2812 25.4556C19.1796 24.6809 20.4882 24.8827 21.1523 25.7812C21.927 26.6796 21.7838 27.9882 20.8267 28.6523L20.5012 29.0168C18.6913 30.4622 16.4517 31.2499 14.1405 31.2499H11.2564C7.25187 31.2499 3.95825 27.9556 3.95825 23.8931C3.95825 21.2564 5.37297 18.815 7.66268 17.5064L16.9335 12.2069C17.9296 11.6405 18.5416 10.5859 18.5416 9.38143C18.5416 7.6757 17.1158 6.24992 15.3515 6.24992H12.526Z" fill="#119DA4"/>
<path opacity="0.4" d="M16.9335 12.2069L10.9569 15.6249H2.91659C1.76619 15.6249 0.833252 14.6939 0.833252 13.5416C0.833252 12.3892 1.76619 11.4583 2.91659 11.4583H17.8189C17.578 11.7577 17.2786 12.0116 16.9335 12.2069ZM4.24015 21.8749H2.91659C1.76619 21.8749 0.833271 20.9439 0.833271 19.7916C0.833271 18.6392 1.76619 17.7083 2.91659 17.7083H7.33195C5.81437 18.6848 4.72583 20.1757 4.24015 21.8749ZM8.84757 21.8749C9.08846 21.5754 9.38794 21.3215 9.73299 21.1262L15.7096 17.7083H23.7499C24.9023 17.7083 25.8333 18.6392 25.8333 19.7916C25.8333 20.9439 24.9023 21.8749 23.7499 21.8749H8.84757ZM19.3359 15.6249C20.8528 14.5898 21.94 13.1575 22.4283 11.4583H23.7499C24.9023 11.4583 25.8333 12.3892 25.8333 13.5416C25.8333 14.6939 24.9023 15.6249 23.7499 15.6249H19.3359Z" fill="#119DA4"/>
</g>
<defs>
<clipPath id="clip0_59_1911">
<rect width="25" height="33.3333" fill="white" transform="translate(0.833252)"/>
</clipPath>
</defs>
</svg>
