<svg width="11" height="15" viewBox="0 0 11 15" fill="none" xmlns="http://www.w3.org/2000/svg">
<path d="M4.00023 3.99896C3.46469 4.20404 3.24232 4.49408 3.18344 4.81928C3.1266 5.13275 3.16967 5.31146 3.22123 5.42279C3.2766 5.53998 3.38471 5.67181 3.60004 5.81537C4.0764 6.12885 4.80297 6.33978 5.74633 6.59467C5.77269 6.60346 5.80199 6.60931 5.82836 6.6181C6.66039 6.84369 7.67992 7.12201 8.43578 7.62299C8.84887 7.89838 9.23851 8.27045 9.47875 8.78607C9.72191 9.30756 9.77465 9.89349 9.66332 10.4912C9.45824 11.6308 8.66722 12.3749 7.73851 12.7617C6.81273 13.1396 5.67894 13.207 4.52465 13.0341H4.51879C3.80687 12.9228 2.63119 12.6152 1.83812 12.2636C1.36498 12.0527 1.15199 11.499 1.36234 11.0244C1.57269 10.5527 2.1267 10.3388 2.57347 10.5497C3.21215 10.8222 4.21996 11.0888 4.80297 11.1796C5.74047 11.3203 6.51097 11.2382 7.03246 11.0273C7.52758 10.8251 7.75316 10.5322 7.81762 10.1806C7.87328 9.86713 7.83226 9.68842 7.77953 9.57709C7.72387 9.4599 7.61547 9.32806 7.4016 9.18451C6.92406 8.87103 6.1975 8.6601 5.25414 8.40521C5.22777 8.39642 5.19847 8.39056 5.17211 8.38178C4.34008 8.15619 3.31996 7.87787 2.56351 7.37689C2.15013 7.1015 1.76283 6.72943 1.5223 6.21381C1.27826 5.69232 1.22523 5.10639 1.33861 4.48236C1.54603 3.34271 2.36693 2.61586 3.33109 2.24789C4.27562 1.88754 5.42699 1.83099 6.57543 2.00238C6.88597 2.04867 7.81176 2.19779 8.19262 2.29418C8.66722 2.42133 8.99828 2.93256 8.86937 3.43353C8.7434 3.93451 8.23363 4.2392 7.72972 4.11322C7.45726 4.01654 6.62816 3.90521 6.30004 3.85834C5.35961 3.71771 4.55394 3.78803 4.00023 3.99896ZM2.26088 4.65228L1.33861 4.48236L2.26088 4.65228ZM6.43773 2.92963L6.30004 3.85834L6.43773 2.92963Z" fill="#119DA4"/>
<path opacity="0.4" d="M5.5 0C6.01855 0 6.4375 0.419824 6.4375 0.9375V1.98281C5.79883 1.89785 5.16016 1.88438 4.5625 1.95498V0.9375C4.5625 0.419824 4.98145 0 5.5 0ZM6.4375 13.084V14.0625C6.4375 14.5811 6.01855 15 5.5 15C4.98145 15 4.5625 14.5811 4.5625 14.0625V13.04C5.2041 13.1338 5.83984 13.1514 6.4375 13.084Z" fill="#119DA4"/>
</svg>
