<svg width="25" height="27" viewBox="0 0 25 27" fill="none" xmlns="http://www.w3.org/2000/svg">
<path d="M12.5056 6.96768C8.95645 6.96768 6.09372 9.87334 6.09372 13.4757C6.09372 17.078 8.95645 19.9837 12.5056 19.9837C16.0547 19.9837 18.9174 17.078 18.9174 13.4757C18.9174 9.87334 16.0547 6.96768 12.5056 6.96768ZM12.5056 17.7067C10.212 17.7067 8.33703 15.8093 8.33703 13.4757C8.33703 11.1421 10.2064 9.24463 12.5056 9.24463C14.8047 9.24463 16.6741 11.1421 16.6741 13.4757C16.6741 15.8093 14.7991 17.7067 12.5056 17.7067ZM20.6752 6.70146C20.6752 7.54541 20.0056 8.21943 19.1797 8.21943C18.3482 8.21943 17.6841 7.53975 17.6841 6.70146C17.6841 5.86318 18.3538 5.1835 19.1797 5.1835C20.0056 5.1835 20.6752 5.86318 20.6752 6.70146ZM24.9219 8.24209C24.827 6.20869 24.3694 4.40752 22.9018 2.92354C21.4397 1.43955 19.6652 0.975098 17.6618 0.873145C15.5971 0.754199 9.40846 0.754199 7.34372 0.873145C5.34596 0.969434 3.5714 1.43389 2.10377 2.91787C0.636135 4.40186 0.184126 6.20303 0.0836792 8.23643C-0.0335083 10.3321 -0.0335083 16.6136 0.0836792 18.7093C0.178545 20.7427 0.636135 22.5438 2.10377 24.0278C3.5714 25.5118 5.34038 25.9763 7.34372 26.0782C9.40846 26.1972 15.5971 26.1972 17.6618 26.0782C19.6652 25.9819 21.4397 25.5175 22.9018 24.0278C24.3638 22.5438 24.8214 20.7427 24.9219 18.7093C25.039 16.6136 25.039 10.3378 24.9219 8.24209ZM22.2544 20.9579C21.8192 22.0681 20.9765 22.9233 19.8772 23.3708C18.231 24.0335 14.3248 23.8806 12.5056 23.8806C10.6864 23.8806 6.77453 24.0278 5.1339 23.3708C4.04015 22.929 3.19752 22.0737 2.75667 20.9579C2.10377 19.287 2.25444 15.3222 2.25444 13.4757C2.25444 11.6292 2.10935 7.65869 2.75667 5.99346C3.19194 4.8833 4.03457 4.02803 5.1339 3.58057C6.78011 2.91787 10.6864 3.0708 12.5056 3.0708C14.3248 3.0708 18.2366 2.92353 19.8772 3.58057C20.971 4.02236 21.8136 4.87764 22.2544 5.99346C22.9073 7.66436 22.7567 11.6292 22.7567 13.4757C22.7567 15.3222 22.9073 19.2927 22.2544 20.9579Z" fill="white"/>
</svg>
