<svg width="25" height="26" viewBox="0 0 25 26" fill="none" xmlns="http://www.w3.org/2000/svg">
<path d="M12.5 0.387695C5.59476 0.387695 0 6.02441 0 12.9814C0 19.9385 5.59476 25.5752 12.5 25.5752C19.4052 25.5752 25 19.9385 25 12.9814C25 6.02441 19.4052 0.387695 12.5 0.387695ZM18.6391 9.01543L16.5877 18.7553C16.4365 19.4459 16.0282 19.6135 15.4587 19.2885L12.3337 16.9678L10.8266 18.4303C10.6603 18.5979 10.5192 18.74 10.1966 18.74L10.4183 15.5357L16.2097 10.2646C16.4617 10.0412 16.1542 9.91426 15.8216 10.1377L8.66431 14.6775L5.57964 13.7076C4.90927 13.4943 4.89415 13.0322 5.72077 12.7072L17.7722 8.0252C18.3317 7.82207 18.8206 8.1623 18.6391 9.01543Z" fill="white"/>
</svg>
