<svg width="125" height="56" viewBox="0 0 125 56" fill="none" xmlns="http://www.w3.org/2000/svg">
<path d="M69.639 55.5882C69.0467 55.5882 68.5156 55.2213 68.3056 54.6679L60.638 34.4672L52.9899 54.6668C52.7799 55.2213 52.2493 55.5876 51.6565 55.5882H51.6559C51.0637 55.5882 50.5325 55.2213 50.3226 54.6679L35.752 16.2873C35.4724 15.5508 35.8427 14.728 36.5787 14.4473C37.3142 14.1678 38.138 14.538 38.4187 15.2746L51.6537 50.1372L59.1095 30.4431L53.7356 16.2862C53.569 15.848 53.6283 15.3556 53.8948 14.9699C54.1612 14.5843 54.6 14.3538 55.0689 14.3538H66.186C66.6544 14.3538 67.0932 14.5837 67.3596 14.9694C67.6266 15.3551 67.686 15.8469 67.52 16.2851L62.1597 30.442L69.6361 50.1372L82.8357 15.2752C83.0456 14.72 83.5774 14.3538 84.1702 14.3538H93.4678C94.2557 14.3538 94.8941 14.9922 94.8941 15.7801V39.0646C94.8941 39.8526 94.2557 40.491 93.4678 40.491C92.6799 40.491 92.0414 39.8526 92.0414 39.0646V17.2076H85.1555L70.9729 54.6668C70.7629 55.2213 70.2323 55.5876 69.639 55.5882ZM57.1366 17.2076L60.6335 26.4196L64.1212 17.2076H57.1366Z" fill="white"/>
<path d="M19.5702 55.5883C18.7823 55.5883 18.1438 54.9498 18.1438 54.1619V25.9975H1.85764C1.06971 25.9975 0.431274 25.3591 0.431274 24.5712V15.7813C0.431274 14.9934 1.06971 14.355 1.85764 14.355H37.0854C37.8733 14.355 38.5117 14.9934 38.5117 15.7813C38.5117 16.5693 37.8733 17.2077 37.0854 17.2077H3.284V23.1448H19.5702C20.3581 23.1448 20.9966 23.7832 20.9966 24.5712V54.1613C20.9966 54.9498 20.3576 55.5883 19.5702 55.5883Z" fill="white"/>
<path d="M123.51 40.4665C122.722 40.4665 122.084 39.8287 122.084 39.0402V17.2077H115.748V34.3052C115.748 35.0932 115.109 35.7316 114.321 35.7316C113.533 35.7316 112.895 35.0932 112.895 34.3052V15.7813C112.895 14.9934 113.533 14.355 114.321 14.355H123.51C124.299 14.355 124.937 14.9934 124.937 15.7813V39.0402C124.937 39.8281 124.298 40.4665 123.51 40.4665Z" fill="white"/>
<path d="M108.477 55.5055C99.3974 55.5055 92.0112 48.1192 92.0112 39.0401C92.0112 38.2522 92.6496 37.6138 93.4375 37.6138C94.226 37.6138 94.8639 38.2522 94.8639 39.0401C94.8639 46.5462 100.971 52.6528 108.477 52.6528C115.984 52.6528 122.091 46.5462 122.091 39.0401C122.091 38.2522 122.729 37.6138 123.517 37.6138C124.305 37.6138 124.944 38.2522 124.944 39.0401C124.944 48.1192 117.557 55.5055 108.477 55.5055Z" fill="white"/>
<path d="M5.08804 4.63405C5.00816 4.55189 4.89976 4.50511 4.78565 4.50397C4.67725 4.49997 4.56143 4.54676 4.48041 4.62721C4.14037 4.96326 3.71702 5.12643 3.18641 5.12643C2.82184 5.12643 2.50176 5.04713 2.20679 4.88281C1.91752 4.72249 1.69558 4.50682 1.53069 4.22212C1.36466 3.93742 1.28422 3.62647 1.28422 3.26988C1.28422 2.91329 1.36523 2.60177 1.53069 2.3165C1.69558 2.03294 1.91752 1.81727 2.20736 1.65581C2.50119 1.49263 2.82127 1.41333 3.18641 1.41333C3.72159 1.41333 4.1455 1.57365 4.48041 1.90514C4.56257 1.98615 4.67725 2.02381 4.78622 2.02894C4.90033 2.0278 5.00988 1.98102 5.08861 1.89829L5.32596 1.65295C5.48457 1.48864 5.48628 1.22904 5.33052 1.06244C5.06408 0.778879 4.73887 0.562642 4.36288 0.417724C3.9983 0.278511 3.59778 0.207764 3.17215 0.207764C2.59077 0.207764 2.05845 0.340701 1.58775 0.603151C1.11362 0.867884 0.735353 1.23817 0.463203 1.70202C0.189912 2.16702 0.0512695 2.69477 0.0512695 3.26874C0.0512695 3.84271 0.189912 4.36989 0.462632 4.83545C0.735923 5.29988 1.11477 5.67016 1.58775 5.93433C2.05731 6.19678 2.59134 6.33028 3.17215 6.33028C3.59435 6.33028 3.99431 6.25839 4.3606 6.11576C4.73773 5.96913 5.06408 5.75118 5.33052 5.46762C5.48685 5.30102 5.48514 5.04085 5.32539 4.87653L5.08804 4.63405Z" fill="white"/>
<path d="M11.5152 0.24707H11.1369C10.9007 0.24707 10.709 0.438773 10.709 0.674979V2.63537H8.09365V0.674979C8.09365 0.438773 7.90194 0.24707 7.66574 0.24707H7.28747C7.05183 0.24707 6.85956 0.438773 6.85956 0.674979V5.86694C6.85956 6.10314 7.05183 6.29485 7.28747 6.29485H7.66574C7.90194 6.29485 8.09365 6.10314 8.09365 5.86694V3.82496H10.709V5.86694C10.709 6.10314 10.9007 6.29485 11.1369 6.29485H11.5152C11.7514 6.29485 11.9431 6.10314 11.9431 5.86694V0.674979C11.9431 0.438773 11.7514 0.24707 11.5152 0.24707Z" fill="white"/>
<path d="M16.6142 0.49591C16.544 0.344145 16.3917 0.246582 16.2245 0.246582H15.8468C15.6796 0.246582 15.5273 0.343575 15.4571 0.49591L13.0683 5.68844C13.0078 5.82024 13.018 5.97543 13.0968 6.09809C13.1761 6.22076 13.3113 6.29493 13.4574 6.29493H13.8653C14.0336 6.29493 14.1865 6.1968 14.2561 6.04332L14.8033 4.83434H17.2635L17.8163 6.04446C17.8859 6.19737 18.0388 6.29436 18.2066 6.29436H18.6145C18.7606 6.29436 18.8958 6.22019 18.9751 6.09752C19.0538 5.97485 19.0641 5.82024 19.0036 5.6873L16.6142 0.49591ZM15.339 3.65844L16.0339 2.12482L16.7329 3.65844H15.339Z" fill="white"/>
<path d="M23.9508 4.23347C24.1836 4.09882 24.3799 3.92537 24.5368 3.71712C24.8032 3.36282 24.9379 2.92806 24.9379 2.42427C24.9379 1.74589 24.6988 1.20159 24.2281 0.809057C23.7797 0.436491 23.1709 0.24707 22.4183 0.24707H20.5561C20.3199 0.24707 20.1282 0.438773 20.1282 0.674979V5.86694C20.1282 6.10314 20.3199 6.29485 20.5561 6.29485H20.9349C21.1711 6.29485 21.3628 6.10314 21.3628 5.86694V4.59633H22.4183C22.5142 4.59633 22.6152 4.59177 22.7196 4.58378L23.8128 6.1157C23.8932 6.22809 24.0221 6.29485 24.1602 6.29485H24.5904C24.7507 6.29485 24.8974 6.20527 24.971 6.06264C25.0446 5.92 25.0314 5.74827 24.9384 5.61875L23.9508 4.23347ZM21.3634 1.4435H22.4189C22.8662 1.4435 23.2006 1.53365 23.4122 1.71052C23.6068 1.87369 23.6969 2.10077 23.6969 2.42427C23.6969 2.74834 23.6062 2.97542 23.4122 3.13859C23.2006 3.3166 22.8662 3.40618 22.4189 3.40618H21.3634V1.4435Z" fill="white"/>
<path d="M27.2765 0.24707H26.8982C26.662 0.24707 26.4703 0.438773 26.4703 0.674979V5.86694C26.4703 6.10314 26.662 6.29485 26.8982 6.29485H27.2765C27.5127 6.29485 27.7044 6.10314 27.7044 5.86694V0.674979C27.7044 0.438773 27.5127 0.24707 27.2765 0.24707Z" fill="white"/>
<path d="M33.7574 0.674979C33.7574 0.438773 33.5657 0.24707 33.3294 0.24707H29.2124C28.9762 0.24707 28.7845 0.438773 28.7845 0.674979V1.01617C28.7845 1.25237 28.9762 1.44407 29.2124 1.44407H30.653V5.86694C30.653 6.10314 30.8447 6.29485 31.0809 6.29485H31.4592C31.6954 6.29485 31.8871 6.10314 31.8871 5.86694V1.4435H33.3283C33.5645 1.4435 33.7562 1.2518 33.7562 1.01559L33.7574 0.674979Z" fill="white"/>
<path d="M37.293 0.49591C37.2228 0.344145 37.0705 0.246582 36.9033 0.246582H36.5245C36.3573 0.246582 36.2056 0.343575 36.1354 0.49591L33.7471 5.68844C33.6866 5.82024 33.6963 5.97543 33.7756 6.09809C33.8549 6.22076 33.9901 6.29493 34.1362 6.29493H34.5441C34.7124 6.29493 34.8654 6.1968 34.9344 6.04332L35.481 4.83434H37.9417L38.4946 6.04446C38.5642 6.19737 38.7171 6.29436 38.8848 6.29436H39.2928C39.4388 6.29436 39.5741 6.22019 39.6534 6.09752C39.7321 5.97485 39.7424 5.82024 39.6819 5.6873L37.293 0.49591ZM36.0173 3.65844L36.7128 2.12482L37.4117 3.65844H36.0173Z" fill="white"/>
<path d="M45.2219 3.10037C45.247 3.07127 45.2715 3.0416 45.2949 3.0125C45.5089 2.73408 45.6173 2.39403 45.6173 2.00207C45.6173 1.44293 45.393 0.983644 44.9708 0.674979C44.5823 0.390848 44.0557 0.24707 43.4013 0.24707H41.2355C40.9993 0.24707 40.8076 0.438773 40.8076 0.674979V5.86694C40.8076 6.10314 40.9993 6.29485 41.2355 6.29485H43.5502C44.2839 6.29485 44.835 6.15107 45.235 5.85496C45.6646 5.53773 45.8905 5.06761 45.8905 4.49364C45.8905 4.03264 45.757 3.64638 45.4923 3.34456C45.413 3.25384 45.3223 3.17225 45.2219 3.10037ZM44.1863 2.45964C44.0174 2.5806 43.7476 2.64165 43.3864 2.64165H42.0422V1.42867H43.3864C43.7481 1.42867 44.0169 1.49029 44.1869 1.61238C44.2799 1.67914 44.3752 1.78127 44.3752 2.03231C44.3752 2.29133 44.2742 2.39631 44.1863 2.45964ZM42.0416 3.82439H43.5507C43.961 3.82439 44.2753 3.88943 44.459 4.0121C44.5515 4.07372 44.6582 4.18098 44.6582 4.46454C44.6582 4.74981 44.5509 4.85879 44.4568 4.92212C44.2736 5.04707 43.9598 5.11211 43.5507 5.11211H42.0416V3.82439Z" fill="white"/>
<path d="M51.1818 5.09784H48.6206V0.674979C48.6206 0.438773 48.4289 0.24707 48.1927 0.24707H47.815C47.5788 0.24707 47.3871 0.438773 47.3871 0.674979V5.86694C47.3871 6.10314 47.5788 6.29485 47.815 6.29485H51.1818C51.418 6.29485 51.6097 6.10314 51.6097 5.86694V5.52575C51.6097 5.28955 51.418 5.09784 51.1818 5.09784Z" fill="white"/>
<path d="M56.7372 5.09784H53.961V3.82496H56.2996C56.5358 3.82496 56.7275 3.63326 56.7275 3.39705V3.06328C56.7275 2.82707 56.5358 2.63537 56.2996 2.63537H53.961V1.4435H56.626C56.8622 1.4435 57.0539 1.2518 57.0539 1.01559V0.674979C57.0539 0.438773 56.8622 0.24707 56.626 0.24707H53.1548C52.9186 0.24707 52.7269 0.438773 52.7269 0.674979V5.86694C52.7269 6.10314 52.9186 6.29485 53.1548 6.29485H56.7372C56.9734 6.29485 57.1651 6.10314 57.1651 5.86694V5.52575C57.1651 5.28955 56.9734 5.09784 56.7372 5.09784Z" fill="white"/>
<path d="M68.4037 0.24707H64.9325C64.6963 0.24707 64.5046 0.438773 64.5046 0.674979V5.86694C64.5046 6.10314 64.6963 6.29485 64.9325 6.29485H65.3108C65.547 6.29485 65.7387 6.10314 65.7387 5.86694V4.00297H68.0785C68.3147 4.00297 68.5064 3.81127 68.5064 3.57506V3.23273C68.5064 2.99653 68.3147 2.80482 68.0785 2.80482H65.7387V1.4435H68.4037C68.6399 1.4435 68.8317 1.2518 68.8317 1.01559V0.674979C68.8317 0.438773 68.6399 0.24707 68.4037 0.24707Z" fill="white"/>
<path d="M74.3374 0.604349C73.3925 0.0800185 72.1054 0.0800185 71.1617 0.608914C70.6853 0.876499 70.3059 1.24735 70.0337 1.71178C69.7604 2.17791 69.6224 2.70224 69.6224 3.27051C69.6224 3.83877 69.7599 4.3631 70.0337 4.82809C70.3065 5.29252 70.6859 5.66451 71.1623 5.9321C71.6358 6.1974 72.171 6.33148 72.7507 6.33148C73.3326 6.33148 73.8661 6.19854 74.3374 5.93666C74.8132 5.67307 75.1937 5.30336 75.4676 4.83665C75.7403 4.37109 75.8784 3.84448 75.8784 3.27051C75.8784 2.69654 75.7403 2.16993 75.4665 1.70379C75.1943 1.2388 74.8143 0.868512 74.3374 0.604349ZM71.7762 4.88458C71.4886 4.72426 71.2684 4.50802 71.1035 4.22332C70.9375 3.93861 70.857 3.62767 70.857 3.27108C70.857 2.91449 70.9381 2.60297 71.1035 2.3177C71.2678 2.03414 71.4881 1.8179 71.7767 1.65701C72.0689 1.49383 72.3861 1.41509 72.7507 1.41509C73.1152 1.41509 73.4313 1.49383 73.72 1.65643C74.0064 1.8179 74.2261 2.03414 74.391 2.31827C74.5564 2.60354 74.638 2.91506 74.638 3.27165C74.638 3.62824 74.557 3.93976 74.391 4.22446C74.2255 4.50916 74.0059 4.7254 73.72 4.88629C73.1415 5.21093 72.361 5.2115 71.7762 4.88458Z" fill="white"/>
<path d="M81.8805 0.24707H81.5023C81.2661 0.24707 81.0744 0.438773 81.0744 0.674979V3.64923C81.0744 4.17299 80.966 4.55697 80.7514 4.79032C80.542 5.01626 80.2328 5.12751 79.8049 5.12751C79.3719 5.12751 79.0598 5.0174 78.8509 4.79032C78.6359 4.55697 78.5269 4.17299 78.5269 3.64923V0.674979C78.5269 0.438773 78.3352 0.24707 78.099 0.24707H77.7207C77.4845 0.24707 77.2928 0.438773 77.2928 0.674979V3.66292C77.2928 4.50505 77.517 5.16631 77.9563 5.62788C78.4019 6.09459 79.0215 6.33136 79.7981 6.33136C80.5734 6.33136 81.1936 6.09459 81.6415 5.62902C82.0848 5.16745 82.3096 4.50619 82.3096 3.66349V0.674979C82.3084 0.438773 82.1173 0.24707 81.8805 0.24707Z" fill="white"/>
<path d="M88.8754 0.24707H88.4971C88.2609 0.24707 88.0692 0.438773 88.0692 0.674979V3.94363L85.3032 0.411958C85.2216 0.307548 85.0984 0.247641 84.966 0.247641H84.6465C84.4103 0.247641 84.2186 0.439344 84.2186 0.67555V5.86751C84.2186 6.10372 84.4103 6.29542 84.6465 6.29542H85.0248C85.2604 6.29542 85.4527 6.10372 85.4527 5.86751V2.59543L88.2256 6.13053C88.3072 6.2338 88.4304 6.29428 88.5622 6.29428H88.8737C89.1099 6.29428 89.3016 6.10257 89.3016 5.86637V0.674409C89.3033 0.438774 89.1116 0.24707 88.8754 0.24707Z" fill="white"/>
<path d="M95.3779 0.631047C94.9004 0.376013 94.3493 0.24707 93.7416 0.24707H91.6865C91.4503 0.24707 91.2586 0.438773 91.2586 0.674979V5.86694C91.2586 6.10314 91.4503 6.29485 91.6865 6.29485H93.7416C94.3481 6.29485 94.8987 6.16533 95.3779 5.91087C95.8629 5.65241 96.2469 5.28841 96.5202 4.82741C96.7912 4.36869 96.9287 3.84493 96.9287 3.27096C96.9287 2.69699 96.7912 2.17323 96.5202 1.71394C96.2475 1.25408 95.8629 0.889504 95.3779 0.631047ZM92.4927 1.4435H93.7114C94.1193 1.4435 94.4799 1.52338 94.7817 1.68028C95.0778 1.83433 95.2975 2.04086 95.4555 2.31358C95.6159 2.58973 95.694 2.90296 95.694 3.27039C95.694 3.63725 95.6159 3.94991 95.4555 4.22719C95.2981 4.50048 95.0773 4.70645 94.7817 4.85993C94.4799 5.01683 94.1193 5.09727 93.7114 5.09727H92.4927V1.4435Z" fill="white"/>
<path d="M101.028 0.49591C100.958 0.344145 100.806 0.246582 100.638 0.246582H100.26C100.092 0.246582 99.9406 0.343575 99.8704 0.49591L97.4821 5.68844C97.4216 5.82024 97.4314 5.97543 97.5107 6.09809C97.59 6.22076 97.7252 6.29493 97.8712 6.29493H98.2792C98.4475 6.29493 98.6004 6.1968 98.6694 6.04332L99.216 4.83434H101.677L102.23 6.04446C102.299 6.19737 102.452 6.29436 102.62 6.29436H103.028C103.174 6.29436 103.309 6.22019 103.388 6.09752C103.467 5.97485 103.477 5.82024 103.417 5.6873L101.028 0.49591ZM99.7523 3.65844L100.448 2.12482L101.147 3.65844H99.7523Z" fill="white"/>
<path d="M107.953 0.24707H103.836C103.599 0.24707 103.408 0.438773 103.408 0.674979V1.01617C103.408 1.25237 103.599 1.44407 103.836 1.44407H105.276V5.86694C105.276 6.10314 105.468 6.29485 105.704 6.29485H106.082C106.319 6.29485 106.51 6.10314 106.51 5.86694V1.4435H107.952C108.188 1.4435 108.38 1.2518 108.38 1.01559V0.674979C108.381 0.438773 108.189 0.24707 107.953 0.24707Z" fill="white"/>
<path d="M110.266 0.24707H109.888C109.652 0.24707 109.46 0.438773 109.46 0.674979V5.86694C109.46 6.10314 109.652 6.29485 109.888 6.29485H110.266C110.503 6.29485 110.694 6.10314 110.694 5.86694V0.674979C110.694 0.438773 110.503 0.24707 110.266 0.24707Z" fill="white"/>
<path d="M116.868 0.604309C115.92 0.0799783 114.635 0.080549 113.692 0.609444C113.216 0.875889 112.837 1.24674 112.563 1.71231C112.29 2.17787 112.153 2.7022 112.153 3.27104C112.153 3.83987 112.29 4.3642 112.564 4.8292C112.837 5.29419 113.217 5.66562 113.692 5.93263C114.166 6.19793 114.701 6.33201 115.281 6.33201C115.862 6.33201 116.395 6.19907 116.868 5.93662C117.344 5.67246 117.724 5.30275 117.997 4.83718C118.27 4.37105 118.409 3.84386 118.409 3.27104C118.409 2.69821 118.27 2.17103 117.997 1.70489C117.725 1.2399 117.345 0.869613 116.868 0.604309ZM115.281 1.41448C115.645 1.41448 115.961 1.49322 116.25 1.65582C116.537 1.81729 116.756 2.0341 116.921 2.31766C117.087 2.60293 117.168 2.91502 117.168 3.27104C117.168 3.62763 117.087 3.93915 116.921 4.22385C116.756 4.50855 116.536 4.72479 116.25 4.88568C115.672 5.21089 114.89 5.21032 114.306 4.88511C114.018 4.72422 113.798 4.50798 113.633 4.22385C113.467 3.93915 113.387 3.6282 113.387 3.27161C113.387 2.91502 113.468 2.6035 113.633 2.31823C113.797 2.03467 114.018 1.819 114.306 1.65754C114.597 1.49322 114.916 1.41448 115.281 1.41448Z" fill="white"/>
<path d="M124.522 0.24707H124.144C123.908 0.24707 123.716 0.438773 123.716 0.674979V3.94363L120.95 0.411958C120.868 0.307548 120.745 0.247641 120.613 0.247641H120.293C120.057 0.247641 119.865 0.439344 119.865 0.67555V5.86751C119.865 6.10372 120.057 6.29542 120.293 6.29542H120.672C120.908 6.29542 121.1 6.10372 121.1 5.86751V2.59543L123.873 6.13053C123.954 6.2338 124.078 6.29428 124.21 6.29428H124.521C124.757 6.29428 124.949 6.10257 124.949 5.86637V0.674409C124.95 0.438774 124.758 0.24707 124.522 0.24707Z" fill="white"/>
</svg>
