<svg width="13" height="14" viewBox="0 0 13 14" fill="none" xmlns="http://www.w3.org/2000/svg">
<path d="M6.49997 7.0176C6.49997 7.06057 6.47128 7.17264 6.41329 7.23365L0.788291 13.136C0.669267 13.2605 0.470908 13.2654 0.346494 13.1458C0.221963 13.0249 0.21833 12.8272 0.336728 12.704L5.7547 6.98131L0.336299 1.29494C0.217939 1.16994 0.221455 0.974628 0.346064 0.854316C0.470595 0.734706 0.668955 0.739589 0.787861 0.864081L6.41286 6.76643C6.47263 6.86135 6.49997 6.93947 6.49997 7.0176Z" fill="black"/>
<path d="M12.75 7.0176C12.75 7.06057 12.7213 7.17264 12.6633 7.23365L7.03829 13.136C6.91927 13.2605 6.72091 13.2654 6.59649 13.1458C6.47196 13.0249 6.46833 12.8272 6.58673 12.704L12.0047 6.98131L6.5863 1.29494C6.46794 1.16994 6.47145 0.974628 6.59606 0.854316C6.7206 0.734706 6.91895 0.739589 7.03786 0.864081L12.6629 6.76643C12.7226 6.86135 12.75 6.93947 12.75 7.0176Z" fill="black"/>
</svg>
