<svg width="13" height="14" viewBox="0 0 13 14" fill="none" xmlns="http://www.w3.org/2000/svg">
<path d="M12.8368 7.73519L12.8368 7.73514C12.8545 7.57944 12.7424 7.44231 12.5892 7.42254C12.5747 7.41869 12.5613 7.41873 12.5541 7.41875L12.5527 7.41875C12.4095 7.41875 12.2872 7.52547 12.2705 7.67089C11.9347 10.5989 9.45414 12.8094 6.5 12.8094C4.03168 12.8094 1.84786 11.226 1.03603 8.925H4.39062C4.54715 8.925 4.675 8.79715 4.675 8.64062C4.675 8.4841 4.54715 8.35625 4.39062 8.35625H0.40625C0.249554 8.35625 0.121875 8.48393 0.121875 8.64062V12.3906C0.121875 12.5471 0.249396 12.675 0.40625 12.675C0.56308 12.675 0.690625 12.5473 0.690625 12.3906V9.59001C1.70136 11.8538 3.9617 13.3781 6.5 13.3781C9.74213 13.3781 12.4677 10.9521 12.8368 7.73519ZM11.964 5.075H8.60938C8.45285 5.075 8.325 5.20285 8.325 5.35938C8.325 5.51587 8.45265 5.64375 8.60938 5.64375H12.5938C12.7504 5.64375 12.8781 5.51607 12.8781 5.35938V1.60938C12.8781 1.45252 12.7502 1.325 12.5938 1.325C12.4371 1.325 12.3094 1.45268 12.3094 1.60938V4.40978C11.2993 2.14586 9.03822 0.621875 6.5 0.621875C3.25787 0.621875 0.532332 3.04789 0.163217 6.26481L0.163214 6.26483C0.145447 6.42029 0.256538 6.56151 0.413239 6.57929L0.450682 6.58354L0.451647 6.58121C0.592765 6.57877 0.712435 6.47286 0.728911 6.32913C1.06561 3.40111 3.54586 1.19063 6.5 1.19063C8.96832 1.19063 11.1521 2.77399 11.964 5.075Z" fill="#119DA4" stroke="#119DA4" stroke-width="0.1"/>
</svg>
