<svg width="25" height="21" viewBox="0 0 25 21" fill="none" xmlns="http://www.w3.org/2000/svg">
<path d="M17.3611 10.5001C17.3611 13.1867 15.1866 15.3612 12.5 15.3612C9.81337 15.3612 7.63889 13.1867 7.63889 10.5001C7.63889 7.81342 9.81337 5.63894 12.5 5.63894C15.1866 5.63894 17.3611 7.81342 17.3611 10.5001ZM12.5 6.33339C10.1606 6.33339 8.33334 8.16064 8.33334 10.5001C8.33334 12.8004 10.1606 14.6667 12.5 14.6667C14.8004 14.6667 16.6667 12.8004 16.6667 10.5001C16.6667 8.16064 14.8004 6.33339 12.5 6.33339ZM20.8594 4.2761C22.8906 6.15978 24.2491 8.37766 24.8915 9.9662C25.0347 10.3091 25.0347 10.691 24.8915 11.0339C24.2491 12.5834 22.8906 14.8013 20.8594 16.724C18.8151 18.6251 16.0069 20.2223 12.5 20.2223C8.99306 20.2223 6.1849 18.6251 4.1415 16.724C2.11025 14.8013 0.75261 12.5834 0.10682 11.0339C-0.0356066 10.691 -0.0356066 10.3091 0.10682 9.9662C0.75261 8.37766 2.11025 6.15978 4.1415 4.2761C6.1849 2.37679 8.99306 0.777832 12.5 0.777832C16.0069 0.777832 18.8151 2.37679 20.8594 4.2761ZM0.747835 10.231C0.676655 10.4046 0.676655 10.5955 0.747835 10.7692C1.36025 12.2362 2.66407 14.3672 4.61372 16.2162C6.57119 18.0348 9.21875 19.5278 12.5 19.5278C15.7813 19.5278 18.4288 18.0348 20.3863 16.2162C22.3351 14.3672 23.6415 12.2362 24.2535 10.7692C24.3229 10.5955 24.3229 10.4046 24.2535 10.231C23.6415 8.72488 22.3351 6.5938 20.3863 4.78391C18.4288 2.96577 15.7813 1.47228 12.5 1.47228C9.21875 1.47228 6.57119 2.96577 4.61372 4.78391C2.66407 6.5938 1.36025 8.72488 0.747835 10.231Z" fill="black"/>
</svg>
