<svg width="25" height="30" viewBox="0 0 25 30" fill="none" xmlns="http://www.w3.org/2000/svg">
<path d="M25 6.96429C25 9.4308 23.0022 11.4286 20.5357 11.4286C19.0904 11.4286 17.8069 10.7422 16.9922 9.68192L8.76674 13.7946C8.82255 14.1797 8.87835 14.5815 8.87835 15C8.87835 15.4185 8.82255 15.8203 8.76674 16.2054L16.9922 20.3181C17.8069 19.2578 19.0904 18.5714 20.5357 18.5714C23.0022 18.5714 25 20.5692 25 23.0357C25 25.5022 23.0022 27.5 20.5357 27.5C18.0692 27.5 16.0714 25.5022 16.0714 23.0357C16.0714 22.3326 16.2333 21.6685 16.5234 21.0324L8.4375 17.0368C7.69531 18.4766 6.1942 19.4643 4.46429 19.4643C1.99888 19.4643 0 17.4665 0 15C0 12.5335 1.99888 10.5357 4.46429 10.5357C6.1942 10.5357 7.69531 11.5234 8.4375 12.9632L16.5234 8.91741C16.2333 8.32589 16.0714 7.66741 16.0714 6.96429C16.0714 4.49888 18.0692 2.5 20.5357 2.5C23.0022 2.5 25 4.49888 25 6.96429ZM4.41406 18.5714C6.43415 18.5714 7.98549 16.9699 7.98549 15C7.98549 13.0301 6.43415 11.4286 4.41406 11.4286C2.49163 11.4286 0.842634 13.0301 0.842634 15C0.842634 16.9699 2.49163 18.5714 4.41406 18.5714ZM20.5357 3.39286C18.5658 3.39286 16.9643 4.99163 16.9643 6.96429C16.9643 8.93415 18.5658 10.5357 20.5357 10.5357C22.5056 10.5357 24.1071 8.93415 24.1071 6.96429C24.1071 4.99163 22.5056 3.39286 20.5357 3.39286ZM20.5357 26.6071C22.5056 26.6071 24.1071 25.0056 24.1071 23.0357C24.1071 21.0658 22.5056 19.4643 20.5357 19.4643C18.5658 19.4643 16.9643 21.0658 16.9643 23.0357C16.9643 25.0056 18.5658 26.6071 20.5357 26.6071Z" fill="black"/>
</svg>
