<svg width="15" height="14" viewBox="0 0 15 14" fill="none" xmlns="http://www.w3.org/2000/svg">
<path d="M14.9698 7.00004C14.9698 7.44368 14.6096 7.80395 14.1659 7.80395H2.80913L7.25222 12.0428C7.57448 12.3493 7.586 12.8601 7.27942 13.1792C6.97286 13.5004 6.46446 13.5119 6.14304 13.2064L0.250178 7.58138C0.0902173 7.43196 0.000244141 7.22102 0.000244141 7.00004C0.000244141 6.77906 0.0902174 6.57147 0.249258 6.41745L6.14211 0.792453C6.46204 0.488101 6.97096 0.499484 7.279 0.820913C7.58556 1.13899 7.57405 1.6496 7.2518 1.9573L2.80872 6.19614H14.196C14.6384 6.19647 14.9698 6.55808 14.9698 7.00004Z" fill="#119DA4"/>
</svg>
