<svg width="69" height="32" viewBox="0 0 69 32" fill="none" xmlns="http://www.w3.org/2000/svg">
<path d="M38.4509 31.9277C38.1267 31.9277 37.8359 31.7271 37.7209 31.4238L33.5225 20.3644L29.3353 31.4232C29.2203 31.7268 28.9298 31.9273 28.6053 31.9277H28.605C28.2807 31.9277 27.9899 31.7271 27.875 31.4238L19.8988 10.4113C19.7458 10.008 19.9485 9.55729 20.3514 9.40392C20.7538 9.25055 21.2054 9.45358 21.3588 9.85684L28.604 28.9434L32.6863 18.1613L29.7441 10.4107C29.6529 10.1708 29.6854 9.9012 29.8313 9.69004C29.9772 9.47889 30.2174 9.35269 30.4741 9.35269H36.5608C36.8173 9.35269 37.0575 9.47857 37.2033 9.68973C37.3492 9.90089 37.382 10.1701 37.2911 10.41L34.3565 18.1607L38.4496 28.9434L45.6758 9.85715C45.7908 9.55354 46.0816 9.35269 46.4061 9.35269H51.4967C51.928 9.35269 52.2776 9.70222 52.2776 10.1336V22.882C52.2776 23.3134 51.928 23.6629 51.4967 23.6629C51.0653 23.6629 50.7158 23.3134 50.7158 22.882V10.9151H46.9456L39.1812 31.4232C39.0666 31.7268 38.7758 31.9277 38.4509 31.9277ZM31.6058 10.9151L33.5206 15.9585L35.4301 10.9151H31.6058Z" fill="#119DA4"/>
<path d="M11.0387 31.9276C10.6073 31.9276 10.2578 31.5781 10.2578 31.1467V15.7277H1.34145C0.910079 15.7277 0.560547 15.3781 0.560547 14.9468V10.1342C0.560547 9.70283 0.910079 9.3533 1.34145 9.3533H20.6285C21.0599 9.3533 21.4094 9.70283 21.4094 10.1342C21.4094 10.5656 21.0599 10.9151 20.6285 10.9151H2.12235V14.1655H11.0387C11.4701 14.1655 11.8196 14.5151 11.8196 14.9464V31.1464C11.8196 31.5781 11.4701 31.9276 11.0387 31.9276Z" fill="#119DA4"/>
<path d="M67.944 23.6488C67.5127 23.6488 67.1631 23.2993 67.1631 22.8679V10.9151H63.6944V20.2756C63.6944 20.707 63.3448 21.0565 62.9135 21.0565C62.4821 21.0565 62.1326 20.707 62.1326 20.2756V10.1342C62.1326 9.70283 62.4821 9.3533 62.9135 9.3533H67.944C68.3754 9.3533 68.7249 9.70283 68.7249 10.1342V22.8679C68.7249 23.2993 68.3754 23.6488 67.944 23.6488Z" fill="#119DA4"/>
<path d="M59.7133 31.8824C54.7427 31.8824 50.6989 27.8385 50.6989 22.8679C50.6989 22.4366 51.0484 22.087 51.4798 22.087C51.9112 22.087 52.2607 22.4366 52.2607 22.8679C52.2607 26.9774 55.6039 30.3206 59.7133 30.3206C63.8231 30.3206 67.1666 26.9774 67.1666 22.8679C67.1666 22.4366 67.5161 22.087 67.9475 22.087C68.3789 22.087 68.7284 22.4366 68.7284 22.8679C68.7284 27.8385 64.6843 31.8824 59.7133 31.8824Z" fill="#119DA4"/>
<path d="M2.85514 3.0883C2.64024 2.92057 2.33662 2.83529 1.95148 2.83529H1.22305V2.28085H2.80798C2.93729 2.28085 3.04225 2.1759 3.04225 2.04658V1.86385C3.04225 1.73453 2.93729 1.62958 2.80798 1.62958H0.782C0.652683 1.62958 0.547729 1.73453 0.547729 1.86385V4.70634C0.547729 4.83565 0.652683 4.94061 0.782 4.94061H1.89494C2.2957 4.94061 2.61337 4.85158 2.83859 4.67572C3.0816 4.48643 3.20499 4.2153 3.20499 3.86983C3.20499 3.53279 3.08723 3.26979 2.85514 3.0883ZM1.22305 3.47438H1.89838C2.52935 3.47438 2.52935 3.74676 2.52935 3.87764C2.52935 4.06381 2.45782 4.13909 2.40378 4.17969C2.30133 4.25685 2.1264 4.29745 1.89869 4.29745H1.22305V3.47438Z" fill="#119DA4"/>
<path d="M7.20195 1.62958H5.33809C5.2119 1.62958 5.1082 1.72985 5.10382 1.85604L5.06321 3.08893C5.0501 3.42316 5.02417 3.69116 4.98606 3.88576C4.94264 4.10848 4.88673 4.20375 4.85674 4.2406C4.80895 4.30089 4.74554 4.3087 4.65715 4.28715C4.59155 4.27153 4.52439 4.28465 4.46942 4.32213C4.41475 4.35993 4.37883 4.41928 4.3704 4.48518L4.34603 4.67604C4.33104 4.79317 4.40538 4.90281 4.51971 4.93248C4.60123 4.95373 4.68932 4.96435 4.78178 4.96435C5.00949 4.96435 5.20409 4.87688 5.34528 4.71196C5.46991 4.5664 5.55956 4.36055 5.61797 4.08193C5.67076 3.83266 5.70574 3.50343 5.72261 3.10174L5.75135 2.28429H6.76059V4.70571C6.76059 4.83503 6.86554 4.93998 6.99486 4.93998H7.20195C7.33127 4.93998 7.43622 4.83503 7.43622 4.70571V1.86322C7.43622 1.73453 7.33127 1.62958 7.20195 1.62958Z" fill="#119DA4"/>
<path d="M10.9312 1.76577C10.8928 1.68269 10.8097 1.62927 10.7182 1.62927H10.5111C10.4196 1.62927 10.3365 1.68237 10.2981 1.76577L8.9902 4.60826C8.95709 4.68073 8.96271 4.76538 9.00582 4.83254C9.04924 4.89969 9.12326 4.9403 9.20323 4.9403H9.42657C9.51871 4.9403 9.60211 4.88657 9.64022 4.80255L9.93978 4.14034H11.2867L11.5894 4.80317C11.6275 4.88658 11.7109 4.93999 11.8027 4.93999H12.026C12.106 4.93999 12.18 4.89938 12.2234 4.83222C12.2666 4.76507 12.2722 4.68042 12.2391 4.60795L10.9312 1.76577ZM10.2331 3.49719L10.6135 2.65757L10.9959 3.49719H10.2331Z" fill="#119DA4"/>
<path d="M15.7859 1.62958H14.0277C13.8983 1.62958 13.7934 1.73453 13.7934 1.86385V4.70634C13.7934 4.83565 13.8983 4.94061 14.0277 4.94061H14.2348C14.3641 4.94061 14.469 4.83565 14.469 4.70634V2.28491H15.7859C15.9153 2.28491 16.0202 2.17996 16.0202 2.05064V1.86385C16.0202 1.73453 15.9153 1.62958 15.7859 1.62958Z" fill="#119DA4"/>
<path d="M19.4244 1.82512C18.9055 1.53806 18.2018 1.53837 17.6861 1.82793C17.4253 1.9738 17.2175 2.17684 17.0679 2.43172C16.9186 2.68661 16.843 2.97367 16.843 3.28509C16.843 3.59652 16.9186 3.88358 17.0682 4.13847C17.2179 4.39304 17.4256 4.59607 17.6861 4.74226C17.9453 4.88751 18.238 4.96091 18.5557 4.96091C18.8734 4.96091 19.1657 4.88813 19.4244 4.74445C19.6855 4.59982 19.8935 4.39741 20.0428 4.14253C20.1925 3.88733 20.2681 3.59871 20.2681 3.28509C20.2681 2.97148 20.1925 2.68286 20.0428 2.42766C19.8938 2.17309 19.6858 1.97037 19.4244 1.82512ZM18.5554 2.26867C18.7547 2.26867 18.928 2.31178 19.0858 2.4008C19.2429 2.4892 19.3631 2.6079 19.4534 2.76314C19.544 2.91932 19.5884 3.08987 19.5884 3.28509C19.5884 3.48032 19.5443 3.65087 19.4534 3.80674C19.3628 3.96261 19.2426 4.08099 19.0858 4.16908C18.7693 4.34743 18.3414 4.34712 18.0216 4.16876C17.8644 4.08099 17.7439 3.96261 17.6533 3.80674C17.5627 3.65149 17.5187 3.48095 17.5187 3.28541C17.5187 3.08987 17.5627 2.91932 17.6533 2.76345C17.7436 2.60821 17.8641 2.48982 18.0219 2.40142C18.1815 2.31209 18.3561 2.26867 18.5554 2.26867Z" fill="#119DA4"/>
<path d="M24.2184 1.8398C23.957 1.70017 23.6553 1.62958 23.3226 1.62958H22.1975C22.0681 1.62958 21.9632 1.73453 21.9632 1.86385V4.70634C21.9632 4.83565 22.0681 4.94061 22.1975 4.94061H23.3226C23.6546 4.94061 23.9561 4.8697 24.2184 4.73039C24.4846 4.58889 24.6945 4.38929 24.8438 4.13753C24.9922 3.8867 25.0674 3.59995 25.0674 3.28509C25.0674 2.97023 24.9922 2.68348 24.8438 2.43297C24.6951 2.1809 24.4849 1.9813 24.2184 1.8398ZM22.6395 2.28491H23.3063C23.5297 2.28491 23.7271 2.32864 23.8927 2.41454C24.0548 2.49888 24.1747 2.61195 24.2612 2.76126C24.3493 2.91245 24.3921 3.08393 24.3921 3.28509C24.3921 3.48625 24.3493 3.65743 24.2609 3.80923C24.175 3.95823 24.0545 4.07131 23.8927 4.15533C23.7271 4.24154 23.5297 4.28527 23.3063 4.28527H22.6395V2.28491Z" fill="#119DA4"/>
<path d="M27.1881 1.62958H26.9813C26.852 1.62958 26.747 1.73453 26.747 1.86385V4.70634C26.747 4.83565 26.852 4.94061 26.9813 4.94061H27.1881C27.3174 4.94061 27.4223 4.83565 27.4223 4.70634V1.86385C27.4223 1.73453 27.3174 1.62958 27.1881 1.62958Z" fill="#119DA4"/>
<path d="M30.1786 1.70235C30.3348 1.82199 30.5366 1.8829 30.7777 1.8829C31.017 1.8829 31.2172 1.8223 31.3722 1.70298C31.5446 1.57179 31.6377 1.38312 31.6414 1.15728C31.6427 1.0945 31.6183 1.0339 31.5743 0.988921C31.5299 0.943941 31.4699 0.91864 31.4071 0.91864H31.2407C31.1135 0.91864 31.0095 1.02016 31.0064 1.14729C31.0051 1.19602 30.9911 1.21632 30.967 1.23475C30.8799 1.30128 30.6693 1.29941 30.5844 1.23475C30.5603 1.21632 30.546 1.19602 30.545 1.14791C30.5422 1.02047 30.4382 0.91864 30.3108 0.91864H30.1443C30.0815 0.91864 30.0212 0.943941 29.9775 0.988609C29.9331 1.03328 29.9091 1.09387 29.91 1.15666C29.9141 1.38218 30.0068 1.57085 30.1786 1.70235Z" fill="#119DA4"/>
<path d="M31.9516 1.62958H31.7686C31.6964 1.62958 31.628 1.663 31.5837 1.72016L30.0659 3.67367V1.86385C30.0659 1.73453 29.9609 1.62958 29.8316 1.62958H29.6248C29.4955 1.62958 29.3906 1.73453 29.3906 1.86385V4.70634C29.3906 4.83565 29.4955 4.94061 29.6248 4.94061H29.8076C29.8797 4.94061 29.9481 4.90718 29.9925 4.85002L31.5099 2.89964V4.70634C31.5099 4.83565 31.6149 4.94061 31.7442 4.94061H31.9516C32.0809 4.94061 32.1859 4.83565 32.1859 4.70634V1.86385C32.1859 1.73453 32.0809 1.62958 31.9516 1.62958Z" fill="#119DA4"/>
<path d="M36.7023 1.62958H36.4955C36.3662 1.62958 36.2612 1.73453 36.2612 1.86385V2.93712H34.8294V1.86385C34.8294 1.73453 34.7244 1.62958 34.5951 1.62958H34.388C34.2587 1.62958 34.1537 1.73453 34.1537 1.86385V4.70634C34.1537 4.83565 34.2587 4.94061 34.388 4.94061H34.5951C34.7244 4.94061 34.8294 4.83565 34.8294 4.70634V3.58839H36.2612V4.70634C36.2612 4.83565 36.3662 4.94061 36.4955 4.94061H36.7023C36.8316 4.94061 36.9366 4.83565 36.9366 4.70634V1.86385C36.9366 1.73453 36.8316 1.62958 36.7023 1.62958Z" fill="#119DA4"/>
<path d="M41.4658 1.62958H41.2827C41.2106 1.62958 41.1422 1.663 41.0978 1.72016L39.58 3.67367V1.86385C39.58 1.73453 39.4751 1.62958 39.3458 1.62958H39.139C39.0097 1.62958 38.9047 1.73453 38.9047 1.86385V4.70634C38.9047 4.83565 39.0097 4.94061 39.139 4.94061H39.3217C39.3939 4.94061 39.4623 4.90718 39.5066 4.85002L41.0241 2.89964V4.70634C41.0241 4.83565 41.129 4.94061 41.2584 4.94061H41.4658C41.5951 4.94061 41.7 4.83565 41.7 4.70634V1.86385C41.7 1.73453 41.5951 1.62958 41.4658 1.62958Z" fill="#119DA4"/>
<path d="M44.4564 1.70235C44.6125 1.82199 44.8143 1.88259 45.0555 1.88259C45.2944 1.88259 45.4943 1.82199 45.6499 1.70267C45.8217 1.57179 45.9148 1.38343 45.9192 1.1576C45.9204 1.09481 45.8964 1.0339 45.852 0.988921C45.808 0.943941 45.7477 0.91864 45.6849 0.91864H45.5184C45.3916 0.91864 45.2876 1.01985 45.2841 1.14666C45.2829 1.1957 45.2685 1.21632 45.2441 1.23475C45.1576 1.30097 44.9471 1.2991 44.8621 1.23475C44.8378 1.21601 44.8237 1.19602 44.8225 1.14729C44.8193 1.02016 44.7153 0.91864 44.5882 0.91864H44.4217C44.3589 0.91864 44.2986 0.943941 44.2546 0.988921C44.2105 1.0339 44.1862 1.09419 44.1874 1.15728C44.1918 1.38281 44.2849 1.57116 44.4564 1.70235Z" fill="#119DA4"/>
<path d="M46.229 1.62958H46.0463C45.9741 1.62958 45.9057 1.663 45.8614 1.72016L44.3436 3.67367V1.86385C44.3436 1.73453 44.2386 1.62958 44.1093 1.62958H43.9025C43.7732 1.62958 43.6683 1.73453 43.6683 1.86385V4.70634C43.6683 4.83565 43.7732 4.94061 43.9025 4.94061H44.085C44.1571 4.94061 44.2255 4.90718 44.2699 4.85002L45.7876 2.89964V4.70634C45.7876 4.83565 45.8926 4.94061 46.0219 4.94061H46.229C46.3583 4.94061 46.4633 4.83565 46.4633 4.70634V1.86385C46.4633 1.73453 46.3583 1.62958 46.229 1.62958Z" fill="#119DA4"/>
<path d="M53.824 2.2162C53.5607 2.00755 53.2137 1.88104 52.7898 1.83887V1.77452C52.7898 1.64521 52.6848 1.54025 52.5555 1.54025H52.3562C52.2269 1.54025 52.122 1.64521 52.122 1.77452V1.83668C51.8696 1.8598 51.6431 1.91446 51.4451 1.99974C51.1758 2.11625 50.9647 2.28586 50.8175 2.50482C50.6701 2.72473 50.5955 2.98711 50.5955 3.2851C50.5955 3.5806 50.6701 3.84173 50.8179 4.06132C50.9647 4.27997 51.1758 4.44958 51.4451 4.5661C51.6428 4.65137 51.8696 4.70603 52.122 4.72946V4.79568C52.122 4.925 52.2269 5.02995 52.3562 5.02995H52.5555C52.6848 5.02995 52.7898 4.925 52.7898 4.79568V4.72946C53.0425 4.70603 53.2693 4.65137 53.467 4.5661C53.7366 4.44927 53.9477 4.27966 54.0942 4.06132C54.242 3.84142 54.3166 3.58028 54.3166 3.28541C54.3166 2.83561 54.1511 2.47609 53.824 2.2162ZM52.7898 2.48327C53.0387 2.51732 53.2387 2.5926 53.3855 2.70786C53.5623 2.84686 53.6447 3.02865 53.6447 3.28073C53.6447 3.53218 53.5601 3.72085 53.3855 3.85797C53.2387 3.97323 53.0391 4.04851 52.7898 4.08287V2.48327ZM52.122 2.48296V4.08287C51.8724 4.04883 51.6728 3.97386 51.5257 3.85922C51.3495 3.7221 51.267 3.53968 51.267 3.2851C51.267 3.03365 51.3517 2.84467 51.525 2.70755C51.6712 2.59229 51.8715 2.51701 52.122 2.48296Z" fill="#119DA4"/>
<path d="M58.3133 1.82512C57.7963 1.53837 57.0929 1.53775 56.5747 1.82762C56.3139 1.97412 56.1061 2.17715 55.9571 2.43141C55.8078 2.6863 55.7322 2.97336 55.7322 3.28478C55.7322 3.59621 55.8078 3.88327 55.9571 4.13784C56.1064 4.39211 56.3142 4.59545 56.575 4.74195C56.8346 4.88689 57.1272 4.9606 57.4446 4.9606C57.7629 4.9606 58.0553 4.88782 58.3133 4.74445C58.5738 4.60014 58.7821 4.39773 58.9321 4.14222C59.0814 3.88733 59.157 3.59902 59.157 3.28478C59.157 2.97055 59.0814 2.68224 58.9318 2.42704C58.7824 2.17278 58.5744 1.97006 58.3133 1.82512ZM56.9108 4.16845C56.7537 4.08099 56.6331 3.96261 56.5425 3.80643C56.4516 3.65056 56.4076 3.48032 56.4076 3.2851C56.4076 3.08987 56.4519 2.91932 56.5425 2.76314C56.6328 2.60759 56.7537 2.4892 56.9111 2.40112C57.0707 2.31178 57.2447 2.26867 57.4443 2.26867C57.6439 2.26867 57.8173 2.31178 57.975 2.4008C58.1318 2.4892 58.2521 2.60759 58.3423 2.76314C58.4329 2.91932 58.4773 3.08987 58.4773 3.2851C58.4773 3.48032 58.4332 3.65087 58.3423 3.80674C58.2517 3.96261 58.1315 4.08099 57.975 4.16908C57.6592 4.34713 57.2313 4.34744 56.9108 4.16845Z" fill="#119DA4"/>
<path d="M63.4179 1.62958H63.2108C63.0815 1.62958 62.9765 1.73453 62.9765 1.86385V2.93712H61.5447V1.86385C61.5447 1.73453 61.4397 1.62958 61.3104 1.62958H61.1033C60.974 1.62958 60.869 1.73453 60.869 1.86385V4.70634C60.869 4.83565 60.974 4.94061 61.1033 4.94061H61.3104C61.4397 4.94061 61.5447 4.83565 61.5447 4.70634V3.58839H62.9765V4.70634C62.9765 4.83565 63.0815 4.94061 63.2108 4.94061H63.4179C63.5472 4.94061 63.6522 4.83565 63.6522 4.70634V1.86385C63.6522 1.73453 63.5472 1.62958 63.4179 1.62958Z" fill="#119DA4"/>
<path d="M68.4841 2.43265C68.3348 2.18089 68.1246 1.9816 67.8588 1.8401C67.5973 1.70048 67.2956 1.62988 66.9629 1.62988H65.8378C65.7085 1.62988 65.6035 1.73484 65.6035 1.86415V4.70664C65.6035 4.83596 65.7085 4.94091 65.8378 4.94091H66.9629C67.295 4.94091 67.5964 4.87001 67.8588 4.73069C68.1243 4.58919 68.3345 4.38991 68.4841 4.13752C68.6325 3.88638 68.7078 3.59963 68.7078 3.2854C68.7078 2.97116 68.6325 2.68379 68.4841 2.43265ZM66.2795 2.2849H66.9467C67.17 2.2849 67.3674 2.32863 67.5327 2.41453C67.6948 2.49887 67.815 2.61195 67.9016 2.76126C67.9893 2.91275 68.0321 3.08424 68.0321 3.28508C68.0321 3.48593 67.9893 3.65742 67.9016 3.80891C67.815 3.95822 67.6945 4.0713 67.5327 4.15532C67.3674 4.24153 67.17 4.28526 66.9467 4.28526H66.2795V2.2849Z" fill="#119DA4"/>
</svg>
