<svg width="15" height="15" viewBox="0 0 15 15" fill="none" xmlns="http://www.w3.org/2000/svg">
<g clip-path="url(#clip0_115_1253)">
<path d="M5.625 10.3125V3.75H1.40625C0.62959 3.75 0 4.37959 0 5.15625V13.5938C0 14.3704 0.62959 15 1.40625 15H7.03125C7.80791 15 8.4375 14.3704 8.4375 13.5938V12.1875H7.5C6.46582 12.1875 5.625 11.3467 5.625 10.3125ZM12.1875 0V2.8125H15L12.1875 0Z" fill="#119DA4"/>
<path opacity="0.4" d="M15 2.8125V9.84375C15 10.6204 14.3704 11.25 13.5938 11.25H7.96875C7.19209 11.25 6.5625 10.6204 6.5625 9.84375V1.40625C6.5625 0.62959 7.19209 0 7.96875 0H12.1875V2.8125H15Z" fill="#119DA4"/>
</g>
<defs>
<clipPath id="clip0_115_1253">
<rect width="15" height="15" fill="white"/>
</clipPath>
</defs>
</svg>
